<svg id="Layer_1" data-name="Layer 1" xmlns="http://www.w3.org/2000/svg" xmlns:xlink="http://www.w3.org/1999/xlink" viewBox="0 0 199.77 218.88"><defs><style>.cls-1{fill:none;}.cls-2{fill:#cceffe;}.cls-3{clip-path:url(#clip-path);}.cls-4{fill:#b2591f;}.cls-5{fill:#f9d8b7;}.cls-6{fill:#fff;}.cls-7{fill:#89331b;}.cls-8{fill:#ffc98f;}.cls-9{fill:#fffc97;}.cls-10{fill:#fe6f86;}.cls-11{fill:#ebbf48;}.cls-12{fill:#2b0304;}.cls-13{fill:#e8976c;}</style><clipPath id="clip-path" transform="translate(-17.23 -16)"><circle class="cls-1" cx="115.11" cy="113.89" r="97.89"/></clipPath></defs><circle class="cls-2" cx="97.89" cy="97.89" r="97.89"/><g class="cls-3"><path class="cls-4" d="M117.66,71a11.74,11.74,0,0,1,4.07,2.85,6,6,0,0,0-2.63-4.22,4.6,4.6,0,0,0-3.45-.58,7.58,7.58,0,0,0-2,1,2.75,2.75,0,0,1,.22.26C115.06,69.91,116.56,70.48,117.66,71Z" transform="translate(-17.23 -16)"/><path class="cls-5" d="M137.65,101.62c-1.56-.22-3.29-.45-5.11-.66-5-.52-10.5-.57-14.32,1.84-.65.26-.65.65-.74.67-2.15,9.21,6.56,12.38,13.26,10.08.36-.17.69-.34,1-.55a13.88,13.88,0,0,0,2.3-1.65C137.21,108.61,137.8,105.43,137.65,101.62Zm-4.39,3.78-.74-.15a10.48,10.48,0,0,0-3.42-.64,9.92,9.92,0,0,0-4.39,1.5.33.33,0,0,1-.39-.51c1.75-1.9,5.67-2.94,8.24-1.78a3.72,3.72,0,0,1,1.17.77A.49.49,0,0,1,133.26,105.4Z" transform="translate(-17.23 -16)"/><path class="cls-4" d="M114.29,80.58c1.31-3.32,1.75-6.18.35-9.56a4.53,4.53,0,0,0-.74,0C110.82,73.66,112.43,77.79,114.29,80.58Z" transform="translate(-17.23 -16)"/><path class="cls-5" d="M107,103.34s0,0,0-.06c-5-3.82-13.59-2.56-19.72-1.71a.91.91,0,0,1-.44.18l-.23,0a.65.65,0,0,1,.08.44C84.53,117.51,110.72,118.69,107,103.34Zm-13.82,3c1-1.42,3.12-1.91,4.81-1.83,1.32.07,4,.58,4.25,2.2a.31.31,0,0,1-.3.39,2.6,2.6,0,0,1-1.45-.53,6.38,6.38,0,0,0-2.36-.74c-1.72-.19-3,.46-4.54,1C93.29,107,93,106.57,93.16,106.33Z" transform="translate(-17.23 -16)"/><path class="cls-6" d="M114.08,131.47a50.78,50.78,0,0,0,8.71-1.68,10.29,10.29,0,0,0,.53-2.57,35.46,35.46,0,0,1-18,1.23,21.64,21.64,0,0,0,1.3,2.74A60.36,60.36,0,0,0,114.08,131.47Z" transform="translate(-17.23 -16)"/><path class="cls-4" d="M109.09,69.88a5.26,5.26,0,0,0-2.73,2.55,8.49,8.49,0,0,0-.89,4.29,1.36,1.36,0,0,0,0,.2A10.19,10.19,0,0,1,113,70.78l.12-.15a4.8,4.8,0,0,0-.58-.61A5.18,5.18,0,0,0,109.09,69.88Z" transform="translate(-17.23 -16)"/><path class="cls-4" d="M94.86,140.62a7,7,0,0,0-.17,3.41,9.94,9.94,0,0,1,3-2.46,11.28,11.28,0,0,1,2.86-1.19,36.73,36.73,0,0,1-3.77-2.61A10.56,10.56,0,0,0,94.86,140.62Z" transform="translate(-17.23 -16)"/><path class="cls-4" d="M137,129.46a6,6,0,0,1,2.58.59,8.62,8.62,0,0,1,2.1,1.21,5.21,5.21,0,0,0-.6-2,11.3,11.3,0,0,0-2.5-2.48C138.06,127.66,137.53,128.56,137,129.46Z" transform="translate(-17.23 -16)"/><path class="cls-4" d="M129.78,138a7.36,7.36,0,0,1,3.51,1.28,9.29,9.29,0,0,1,1.53,1.22,6,6,0,0,0-.13-2,6.58,6.58,0,0,0-2.09-3.21A34.53,34.53,0,0,1,129.78,138Z" transform="translate(-17.23 -16)"/><path class="cls-7" d="M114,162.29a1.76,1.76,0,0,0-.88,1.64,2,2,0,0,0,2.43,2,1.93,1.93,0,0,0,1-3.09C115.71,162.05,114.86,162.25,114,162.29Z" transform="translate(-17.23 -16)"/><path class="cls-8" d="M123.48,151.53a16.37,16.37,0,0,1-2,2.47,39.44,39.44,0,0,1-4.16,3.91,3.54,3.54,0,0,0-3.55-.52.74.74,0,0,0-.23-.2,19,19,0,0,1-5-3.22,25.31,25.31,0,0,0-2.67-2.71,10.3,10.3,0,0,0,.08-3.68c0-.32,0-.62,0-.92a31.17,31.17,0,0,0-.29-3.85A22.69,22.69,0,0,0,116.31,144a24.8,24.8,0,0,0,6.91-1.94c-.16,1.43,0,2.86-.06,4.29,0,.62-.06,1.24-.11,1.88a9.62,9.62,0,0,0,.1,3A.41.41,0,0,0,123.48,151.53Z" transform="translate(-17.23 -16)"/><path class="cls-9" d="M118.25,158.86a25.18,25.18,0,0,1,1.69,2.18,36.93,36.93,0,0,0,3.21,4.52c2.09,2.2,5.94,3.74,8.23.78,1.88-2.42,1.53-7.66,1.45-10.62-.14-5-2-11.7-8.4-10.62,0,.55,0,1.1,0,1.63a22.5,22.5,0,0,1-.13,3.18,1.27,1.27,0,0,1,.11-.13.08.08,0,0,1,.08,0l.2.08a.54.54,0,0,1,.39.51c-.16,1.61-1.32,2.83-2.33,4A38,38,0,0,1,118.25,158.86Z" transform="translate(-17.23 -16)"/><path class="cls-8" d="M139.08,95.44a.43.43,0,0,1-.34-.56c1.88-6.69,2.84-12.54-2.6-17.83-3.73-3.63-8.72-4.84-13.75-5.07a7.72,7.72,0,0,1,.57,3.59.5.5,0,0,1-1,.09c-1.65-1.62-4.1-4.2-6.67-4.61,1.53,1.77,1.56,4.22,1,6.52a16.5,16.5,0,0,1-1.48,3.82.4.4,0,0,1-.7,0,.21.21,0,0,1-.15,0,7,7,0,0,1-2.52-4.1,8,8,0,0,1-.22-2.37,7.23,7.23,0,0,1,.72-2.92,11.86,11.86,0,0,0-5.28,5.43,10,10,0,0,0-.72,2,.56.56,0,0,1-.74.41.46.46,0,0,1-.17-.09.54.54,0,0,1-.22-.23,3.47,3.47,0,0,1-.87-1.78,9.19,9.19,0,0,1,1.13-5.7c-5,1.19-10.14,1.73-14.56,4.69a15.36,15.36,0,0,0-4.77,4.92,12,12,0,0,0,0,12.2.32.32,0,0,1,.12.4,40.46,40.46,0,0,0-3.08,6.27,16.58,16.58,0,0,1,4.1-.38.81.81,0,0,1,.46.15c5-1,16.94-2.42,20.57,1.76a10.71,10.71,0,0,1,5-1,10.23,10.23,0,0,1,4.19.57c3-2.72,10.06-2.67,15.41-2.06a48.9,48.9,0,0,1,5.91,1,11.64,11.64,0,0,1,2.83-.4C140.61,98.46,139.8,97,139.08,95.44Zm-36.33,1.68c-1.55-.41-2.79-1.52-4.42-1.85-1.82-.37-3.45.25-5.21.11a.27.27,0,0,1-.19-.47c2.24-2.26,8.88-1.26,10.27,1.63A.4.4,0,0,1,102.75,97.12Zm29.42-1.62h0c-1.67-.17-3-1.21-4.71-1.21-2.12,0-3.63,1.06-5.43,2a.36.36,0,0,1-.49-.49,6.72,6.72,0,0,1,5.28-3.11,7.5,7.5,0,0,1,5.08,1.14,3,3,0,0,1,.74.89C132.79,95,132.59,95.55,132.17,95.5Z" transform="translate(-17.23 -16)"/><path class="cls-10" d="M122.33,130.92A26.77,26.77,0,0,1,107.12,132a8.16,8.16,0,0,0,6.43,3.87A8.66,8.66,0,0,0,122.33,130.92Z" transform="translate(-17.23 -16)"/><path class="cls-4" d="M149.38,83.92c-.1,7.1-2.84,13.92-5.73,20.32a16.92,16.92,0,0,0-1-3.8,18.06,18.06,0,0,0-3.07-5.17.39.39,0,0,0,.08-.14c2.36-6.45,3.13-13.24-2-18.53a17.92,17.92,0,0,0-15.47-5.28,6.55,6.55,0,0,0-3-2.92c-1.72-.79-5-.74-5.93,1.21l-.16-.1c-1.51-2.27-5.47-.71-7,.9a4.38,4.38,0,0,0-.39.54c-.7,0-1.41,0-2.13,0-6.36.32-13.13,2.56-17.38,7.23-.17.17-.3.33-.45.5-3.58,4.27-4.76,11-1,15.44A10.64,10.64,0,0,0,81,100.59a16.69,16.69,0,0,0,.47,8.54L81,109h0a3.63,3.63,0,0,0-1.68-1.61c-6.14-11.88-7.92-25.26-1.63-37.54a37.87,37.87,0,0,1,30.87-20.34,42.61,42.61,0,0,1,8.48.22c11,1.31,22.52,6.59,27.43,15.39A38.25,38.25,0,0,1,149.38,83.92Z" transform="translate(-17.23 -16)"/><path class="cls-4" d="M130.36,37.59c.11,4.52-2.37,8.42-4,12.47a48.16,48.16,0,0,0-15.83-2.27c-.67,0-1.36.05-2,.12a40.16,40.16,0,0,0-4.93.77c-.38-.28-.8-.53-1.22-.78-4.89-4.42-5.87-11.25-1-16.29,4.17-4.37,10.47-5.24,16.2-4.59a21.76,21.76,0,0,1,3.73.73C126,29.06,130.19,32,130.36,37.59Z" transform="translate(-17.23 -16)"/><path class="cls-4" d="M87.22,133.39a5.59,5.59,0,0,0-.84,2.92c1.15-1.76,3.51-2.7,5.7-2.89-.74-.77-1.46-1.55-2.15-2.36A7.76,7.76,0,0,0,87.22,133.39Z" transform="translate(-17.23 -16)"/><path class="cls-9" d="M119,194.6c-.14-5.73-.22-11.46-.39-17.21-.08-2.82.08-5.81-.17-8.7a22.13,22.13,0,0,0-.38-2.83,3.87,3.87,0,0,1-2,1.62,3.56,3.56,0,0,1-4.52-3.28,3.29,3.29,0,0,1,1.16-2.81l.55-.35a2.48,2.48,0,0,1,2.69-.4,11.25,11.25,0,0,0-1.56-1.78,1.94,1.94,0,0,0-.93.57c-3.63,3.83-4.35,11.27-9.66,13.09a4.87,4.87,0,0,1-3,.1,7.5,7.5,0,0,1-4.39-4.29,22.62,22.62,0,0,1-.7-15.42c-11.33,6.2-25.27,11-33.06,21.14,4.41,4.06,5.35,10.75,5.9,16.89.17,1.69.29,3.32.46,4.87a222.45,222.45,0,0,1,.89,32c4.52.1,9,.23,13.44.23h1.16l31.14.05h4.18Q119.4,211.36,119,194.6Zm-20.29-1.46c0,.27,0,.48,0,.55,0,.35,0,1-.94,1a191.17,191.17,0,0,1-23.61-.15,8.59,8.59,0,0,1-.47-3,.5.5,0,0,1,.47-.5.35.35,0,0,1,.18-.1A116.62,116.62,0,0,1,98,190.8l.05,0c1,.05.67,1.39.66,1.53S98.71,192.87,98.71,193.14Zm17.35,33.76a3.56,3.56,0,0,1-4.52-3.28,3.23,3.23,0,0,1,1.16-2.79,3,3,0,0,1,.55-.35c1.11-1.33,3.85-.27,4.74.91C119.47,223.32,118.27,226.16,116.06,226.9Zm0-28.15a3.56,3.56,0,0,1-4.52-3.28,3.24,3.24,0,0,1,1.16-2.79,3,3,0,0,1,.55-.35c1.11-1.33,3.85-.27,4.74.91C119.47,195.17,118.27,198,116.06,198.75Z" transform="translate(-17.23 -16)"/><path class="cls-11" d="M74.89,193.88c9.48,0,14.39-.46,22.59-.13,0,0,0,0,0-.06,0-.27,0-.76,0-1.23v-.11s0,0,0-.08a3.41,3.41,0,0,1,.1-.46c-8.54-.1-12.74-.1-22.8-.15A11.6,11.6,0,0,1,74.89,193.88Z" transform="translate(-17.23 -16)"/><path class="cls-7" d="M114,221.72a1.76,1.76,0,0,0-.88,1.64,2,2,0,0,0,2.43,2,1.93,1.93,0,0,0,1-3.09C115.71,221.48,114.86,221.68,114,221.72Z" transform="translate(-17.23 -16)"/><path class="cls-7" d="M114,193.57a1.77,1.77,0,0,0-.88,1.64,2,2,0,0,0,2.43,2,1.93,1.93,0,0,0,1-3.09C115.71,193.33,114.86,193.53,114,193.57Z" transform="translate(-17.23 -16)"/><path class="cls-11" d="M132.66,193.88c9.48,0,14.39-.46,22.59-.13,0,0,0,0,0-.06,0-.27,0-.76,0-1.23v-.11a.24.24,0,0,1,0-.08,2.36,2.36,0,0,1,.1-.46c-8.55-.1-12.75-.1-22.8-.15A12.48,12.48,0,0,1,132.66,193.88Z" transform="translate(-17.23 -16)"/><path class="cls-9" d="M161.09,196.48c0-4.74.07-9.61.34-14.45a110.85,110.85,0,0,1,1.95-16.75c-2.76-3.11-6.35-4.83-10.4-6.39-6.24-2.39-12.57-4.5-18.67-7.19a19.93,19.93,0,0,1,.38,3.81,43.94,43.94,0,0,1-.77,8.49c-.69,3.78-3.06,6.43-7.16,5.63-3.8-.74-6-4.22-8.13-7.51a15.6,15.6,0,0,1,1,3.47,45.41,45.41,0,0,1,.52,4.56c.36,5.24,0,10.69.22,15.85q.7,21.06,1.3,42.12l26,0h.28c4.93,0,10-.17,15-.22C160.81,217.86,161,206.68,161.09,196.48Zm-4.6-3.34v.55c0,.35,0,1-.94,1a191.19,191.19,0,0,1-23.61-.15,8.59,8.59,0,0,1-.47-3,.51.51,0,0,1,.48-.5.35.35,0,0,1,.19-.1,116.61,116.61,0,0,1,23.63-.17s0,0,0,0c1,.05.67,1.39.67,1.53S156.49,192.87,156.49,193.14Z" transform="translate(-17.23 -16)"/><path class="cls-9" d="M175.34,228.26c-2.22-.17-4.47-.27-6.72-.3-1.41,0-2.82,0-4.23,0,0-10.47-1.52-20.94-1.43-31.44,0-5.24.38-10.47.77-15.69.34-4.64.71-9.26.91-13.92.2.29.4.57.6.88,2.34,3.91,3.77,8.5,5,12.87C174.74,195.88,175.73,212.41,175.34,228.26Z" transform="translate(-17.23 -16)"/><path class="cls-8" d="M145.48,104a.44.44,0,0,1-.59,0c-.4.91-.82,1.8-1.22,2.69,0,.15,0,.32,0,.47-.07.33-.53.27-.63,0a.35.35,0,0,0,0-.12.55.55,0,0,1-.25-.72s0,0,0-.07c-.37-1.48-.52-3-.94-4.54a8.05,8.05,0,0,1-2.76-.06.67.67,0,0,1,.09.21,12.1,12.1,0,0,1-7.71,13.38,12.91,12.91,0,0,1-4.16.88,6.68,6.68,0,0,1-1,0c-5.88-.15-12-3.49-10.62-12a3.31,3.31,0,0,1,.13-.5c-1.07-.12-2.2-.42-3.21-.48-1.31-.06-2.65.14-4,.09a3.68,3.68,0,0,1,.27.89c1.36,8.67-4.93,12-10.89,12-7.82,0-13.85-6.5-12.59-14.27a11.25,11.25,0,0,1-3-.15,16.55,16.55,0,0,0,.5,7.9.57.57,0,0,1-.1.49.39.39,0,0,1-.37.47A2.22,2.22,0,0,1,81,109.7a.33.33,0,0,1-.49-.12c-2.62-1.91-4.4-1.46-5.31,1.35a5.75,5.75,0,0,0,.16,3.36,17.12,17.12,0,0,0,2.15,4.27c2.06,3.26,4.18,6,8.13,6.45a.5.5,0,0,1,.79-.15c2.5,2.87,5.06,5.9,7.85,8.64h0a.55.55,0,0,1,.5.54,33.73,33.73,0,0,0,9.57,6.78,21.62,21.62,0,0,0,9,2c13.14,0,22.24-10.6,26.34-22a.55.55,0,0,1,.57-.62,8.9,8.9,0,0,0,8-5.65,17.61,17.61,0,0,0,1.28-5.21c0-.37.06-.75.08-1.12C150,105.92,149.19,102.56,145.48,104ZM83.2,117.5a.44.44,0,0,1-.84,0c-.48-1.46-.42-2.77-1.61-4a2.09,2.09,0,0,0-.29-.23,1.72,1.72,0,0,0-1.22.73c-.44.66-.17,1.32-.15,2a.39.39,0,0,1-.58.32,2.11,2.11,0,0,1-.13-2.92,2.3,2.3,0,0,1,1.18-.78,8.07,8.07,0,0,0-3.43-.8.21.21,0,0,1,0-.42,5.17,5.17,0,0,1,5.33,1.14C82.58,113.69,83.83,115.87,83.2,117.5ZM110,119.3a3.27,3.27,0,0,0,3.24,1.8c1.34-.26,1.71-1.26,2.57-2.1a.29.29,0,0,1,.47.11c.34,1.58-1.54,3-3,3.11a3.52,3.52,0,0,1-3.88-2.69A.31.31,0,0,1,110,119.3Zm-7.85,8.3a.19.19,0,0,1,0-.37c3.63.07,7.17.57,10.8.42,4.22-.2,8.1-1.31,12.2-2,.42-.07.76.53.31.74s-.79.3-1.18.47a.43.43,0,0,1,.12.37,11.07,11.07,0,0,1-.57,2.87.24.24,0,0,1,0,.13,10,10,0,0,1-9.16,7c-4.93.19-10.25-3.73-10.15-8.94A20.2,20.2,0,0,1,102.16,127.6ZM147.33,106c-.52.64-1.06,1.21-1.55,1.83a1.44,1.44,0,0,1,1.31,1.92c-.1.37-.73.32-.68-.08s-.34-1-.9-.71c-.18.1-.25.32-.43.42a.57.57,0,0,1-.27.07,36.75,36.75,0,0,0-1,3.68.31.31,0,0,1-.57.06c-1.31-2.63,1-6.94,3.78-7.66A.28.28,0,0,1,147.33,106Z" transform="translate(-17.23 -16)"/><path class="cls-9" d="M68.2,227.81c-1.52,0-3-.06-4.51,0a136.35,136.35,0,0,0-13.76.52c2.6-14.45,4.27-29.14,7.58-43.42A27.53,27.53,0,0,1,61.93,175c2.86,4.34,4.15,9.48,4.87,14.74.56,4,.76,8.13,1.06,12A216.26,216.26,0,0,1,68.2,227.81Z" transform="translate(-17.23 -16)"/><path class="cls-9" d="M102,170.88c3.81,0,4.36-2,6.15-5,.87-1.47,1.72-3,2.59-4.42a21.59,21.59,0,0,1,2-3.12,18.66,18.66,0,0,1-5-3.23,8.62,8.62,0,0,1-2.59-3.25s-.08,0-.1-.1c-.71-1.42-.48-3.16-.51-4.72q0-.9-.06-1.83c-5.09,2.17-7.8,6.79-8.12,12.33a27.24,27.24,0,0,0,.49,6.82C97.72,168.11,97.81,170.88,102,170.88Z" transform="translate(-17.23 -16)"/><path class="cls-12" d="M113.33,122.23c1.41-.16,3.29-1.53,3-3.11a.28.28,0,0,0-.46-.12c-.87.84-1.23,1.85-2.58,2.09A3.24,3.24,0,0,1,110,119.3a.31.31,0,0,0-.56.24A3.54,3.54,0,0,0,113.33,122.23Z" transform="translate(-17.23 -16)"/><path class="cls-12" d="M123.84,130.21a.42.42,0,0,0,.06-.14,12,12,0,0,0,.56-2.88.45.45,0,0,0-.12-.37c.39-.16.81-.29,1.18-.46s.11-.81-.31-.74c-4.1.71-8,1.83-12.19,2-3.64.16-7.18-.34-10.81-.4-.22,0-.24.3,0,.36a22.36,22.36,0,0,0,2.37.68c-.11,5.19,5.23,9.11,10.14,8.94A10,10,0,0,0,123.84,130.21Zm-17.25,1a21.64,21.64,0,0,1-1.3-2.74,35.46,35.46,0,0,0,18-1.23,10.29,10.29,0,0,1-.53,2.57,50.78,50.78,0,0,1-8.71,1.68A60.36,60.36,0,0,1,106.59,131.19Zm.53.82a26.77,26.77,0,0,0,15.21-1.09,8.66,8.66,0,0,1-8.78,5A8.16,8.16,0,0,1,107.12,132Z" transform="translate(-17.23 -16)"/><path class="cls-12" d="M113.25,192.33a3.7,3.7,0,0,0-.55.35,3.26,3.26,0,0,0-1.16,2.8,3.57,3.57,0,0,0,4.52,3.27,3.66,3.66,0,0,0,1.93-5.51C117.1,192.07,114.36,191,113.25,192.33Zm2.27,4.84a2,2,0,0,1-2.43-2,1.77,1.77,0,0,1,.88-1.64c.89,0,1.74-.24,2.5.51A1.93,1.93,0,0,1,115.52,197.17Z" transform="translate(-17.23 -16)"/><path class="cls-12" d="M113.25,220.48a3.7,3.7,0,0,0-.55.35,3.24,3.24,0,0,0-1.16,2.8,3.57,3.57,0,0,0,4.52,3.27,3.66,3.66,0,0,0,1.93-5.51C117.1,220.22,114.36,219.15,113.25,220.48Zm2.27,4.84a2,2,0,0,1-2.43-2,1.76,1.76,0,0,1,.88-1.64c.89,0,1.74-.24,2.5.51A1.93,1.93,0,0,1,115.52,225.32Z" transform="translate(-17.23 -16)"/><path class="cls-12" d="M98,190.82l0,0a116.71,116.71,0,0,0-23.64.18.34.34,0,0,0-.18.09.51.51,0,0,0-.47.51,8.62,8.62,0,0,0,.47,2.95,193.28,193.28,0,0,0,23.61.16c.94,0,.95-.64.94-1,0-.07,0-.28,0-.55s0-.53,0-.79S99,190.87,98,190.82Zm-.53,1.45s0,0,0,.08v.11c0,.47,0,1,0,1.23,0,0,0,0,0,.06-8.2-.33-13.11.17-22.59.13a11.6,11.6,0,0,0-.08-2.22c10.06.05,14.26.05,22.8.15A3.41,3.41,0,0,0,97.51,192.27Z" transform="translate(-17.23 -16)"/><path class="cls-12" d="M155.81,190.82l-.05,0a116.62,116.62,0,0,0-23.63.18.34.34,0,0,0-.18.09.52.52,0,0,0-.48.51,8.88,8.88,0,0,0,.47,2.95,193.3,193.3,0,0,0,23.61.16c.95,0,.95-.64.95-1,0-.07,0-.28,0-.55s0-.53,0-.79S156.76,190.87,155.81,190.82Zm-.53,1.45a.24.24,0,0,0,0,.08v.11c0,.47,0,1,0,1.23,0,0,0,0,0,.06-8.2-.33-13.11.17-22.59.13a12.48,12.48,0,0,0-.08-2.22c10,.05,14.25.05,22.8.15A2.36,2.36,0,0,0,155.28,192.27Z" transform="translate(-17.23 -16)"/><path class="cls-12" d="M76.07,111.46a.22.22,0,0,0,.06.43,8,8,0,0,1,3.43.8,2.2,2.2,0,0,0-1.17.78,2.1,2.1,0,0,0,.13,2.93.38.38,0,0,0,.56-.33c0-.7-.28-1.37.16-2a1.71,1.71,0,0,1,1.22-.74,3.3,3.3,0,0,1,.3.22c1.18,1.19,1.11,2.5,1.6,4a.44.44,0,0,0,.84,0c.62-1.63-.61-3.81-1.79-4.88A5.16,5.16,0,0,0,76.07,111.46Z" transform="translate(-17.23 -16)"/><path class="cls-12" d="M143.85,113.15a35.69,35.69,0,0,1,1-3.69.45.45,0,0,0,.27-.06c.18-.1.26-.31.44-.42.55-.32.94.16.88.7s.59.47.7.1a1.46,1.46,0,0,0-1.31-1.93c.49-.62,1-1.19,1.55-1.82a.29.29,0,0,0-.28-.48c-2.77.73-5.08,5-3.78,7.67A.32.32,0,0,0,143.85,113.15Z" transform="translate(-17.23 -16)"/><path class="cls-12" d="M93.57,106.85c1.56-.57,2.82-1.22,4.54-1a6.38,6.38,0,0,1,2.36.74,2.6,2.6,0,0,0,1.45.53.31.31,0,0,0,.3-.39c-.23-1.62-2.93-2.13-4.25-2.2-1.69-.08-3.76.41-4.81,1.83C93,106.57,93.29,107,93.57,106.85Z" transform="translate(-17.23 -16)"/><path class="cls-12" d="M124.72,106.11a10,10,0,0,1,4.38-1.51c1.54-.08,2.71.56,4.16.81a.49.49,0,0,0,.47-.81c-2.37-2.28-7.37-1.21-9.41,1A.33.33,0,0,0,124.72,106.11Z" transform="translate(-17.23 -16)"/><path class="cls-12" d="M92.93,94.91a.28.28,0,0,0,.19.47c1.77.13,3.39-.48,5.2-.11,1.64.34,2.88,1.44,4.44,1.85a.39.39,0,0,0,.44-.58C101.8,93.65,95.17,92.64,92.93,94.91Z" transform="translate(-17.23 -16)"/><path class="cls-12" d="M126.82,92.68a6.75,6.75,0,0,0-5.29,3.1.37.37,0,0,0,.5.5c1.78-.93,3.3-2,5.42-2,1.74,0,3.07,1,4.72,1.21.42,0,.63-.48.46-.8C131.65,92.86,128.7,92.49,126.82,92.68Z" transform="translate(-17.23 -16)"/><path class="cls-12" d="M177.9,227.93a1.12,1.12,0,0,0-.22-.83c-1.24-17.65-1.07-35.47-7.23-52.36a34.41,34.41,0,0,0-5.84-10.86.27.27,0,0,0-.07-.08,18.49,18.49,0,0,0-5.27-4.24c-7.68-4.1-16.93-7-25.34-9.31a12.48,12.48,0,0,0-.85-2.21c-1.69-3.3-5.22-5.29-8.69-4a10.41,10.41,0,0,0-.36-2.3,27.39,27.39,0,0,0,4.95-3.09l.05,0a15.09,15.09,0,0,1,3.48,1.55c1,.7,1.57,1.87,2.55,2.47.3.19.81,0,.76-.43,0-.1,0-.2-.07-.29.67-1.1.41-2.93.06-4a6.08,6.08,0,0,0-2.55-3.41,39.31,39.31,0,0,0,3.21-4.24c.69.35,1.53.43,2.24.72a10.67,10.67,0,0,1,3.28,2.33h0a.45.45,0,0,0,.81.1s0,0,0-.06a.54.54,0,0,0,.25-.54c.83-2.38-1.54-6.56-4.06-7q1.08-2.18,1.94-4.43c6,.15,9.3-6.27,9.89-11.53.26-2.34.52-5.67-1.67-7.28a2.93,2.93,0,0,0-3.64-.06c2.5-5.58,4.75-11.33,5.22-17.46.56-7.24-1.57-14.28-4.82-20.65s-10.4-11.22-18.41-14c3.72-5.41,6.77-13.67,2.37-19.59-4-5.33-13-6.35-19-5.45-5.73.85-11.36,4.1-13.55,9.7a11,11,0,0,0,2.21,11.72,7.88,7.88,0,0,0,1,1.12,8.87,8.87,0,0,0,1.4,1.2c-24.12,6.56-38.76,35.66-23.72,58a3.76,3.76,0,0,0-1.93.29c-2.33,1-3,3.92-2.58,6.21.75,4.27,6.76,14.2,12.25,12.3,1.07,1.51,2.23,3,3.45,4.49-3.07.84-5.37,5.23-3.85,8a.43.43,0,0,0,.79-.21c0-.14,0-.27,0-.4a14.8,14.8,0,0,1,2.93-2.25,7.42,7.42,0,0,1,4.16-.76c.82.8,1.67,1.57,2.54,2.3-2.8,1.29-3.9,6.34-1.94,8.54a.47.47,0,0,0,.79-.33v-.07a17.73,17.73,0,0,1,3.51-2.62,11.69,11.69,0,0,1,2.15-.84,8.27,8.27,0,0,0,1.71-.48c.82.43,1.67.81,2.53,1.16a10,10,0,0,0-.15,1.73c-4.17.83-6.9,3.78-8.42,7.51a.43.43,0,0,0-.25,0c-8.64,2.95-16.81,7.34-24.63,12-6.08,3.66-11.2,7.86-13.87,14.61-3.3,8.36-3.9,18.08-5.37,26.87-1.3,7.76-2.61,15.52-3.76,23.31a.77.77,0,0,0,.28,1.48c11.37,1.33,23.34.35,34.79.34q16.16,0,32.3,0t32.31,0c9.85,0,20.13.7,30-.37,0-.46.06-.92.07-1.39l-.18,0Zm-53.22-78.09-.2-.08a.08.08,0,0,0-.08,0,1.27,1.27,0,0,0-.11.13,22.5,22.5,0,0,0,.13-3.18c0-.53,0-1.08,0-1.63,6.38-1.08,8.26,5.62,8.4,10.62.08,3,.43,8.2-1.45,10.62-2.29,3-6.14,1.42-8.23-.78a36.93,36.93,0,0,1-3.21-4.52,25.18,25.18,0,0,0-1.69-2.18,38,38,0,0,0,4.49-4.48c1-1.2,2.17-2.42,2.33-4A.54.54,0,0,0,124.68,149.84Zm-10.91,7.55a.67.67,0,0,0-.24-.19,19.73,19.73,0,0,1-5-3.23,26.46,26.46,0,0,0-2.68-2.72,13.92,13.92,0,0,0,0-4.6,27.7,27.7,0,0,0-.28-3.85A22.44,22.44,0,0,0,116.31,144a25.07,25.07,0,0,0,6.9-1.93c-.14,1.42,0,2.86,0,4.28,0,1.6-.39,3.31,0,4.87a.41.41,0,0,0,.33.28,15.51,15.51,0,0,1-2,2.48,38.48,38.48,0,0,1-4.16,3.91A3.54,3.54,0,0,0,113.77,157.39Zm1.75,8.5a2,2,0,0,1-2.43-2,1.76,1.76,0,0,1,.88-1.64c.89,0,1.74-.24,2.5.51A1.93,1.93,0,0,1,115.52,165.89Zm19.17-27.46a6,6,0,0,1,.13,2,9.29,9.29,0,0,0-1.53-1.22,7.36,7.36,0,0,0-3.51-1.28,34.53,34.53,0,0,0,2.82-2.73A6.58,6.58,0,0,1,134.69,138.43Zm6.36-9.22a5.21,5.21,0,0,1,.6,2,8.62,8.62,0,0,0-2.1-1.21,6,6,0,0,0-2.58-.59c.56-.9,1.09-1.8,1.58-2.73A11.3,11.3,0,0,1,141.05,129.21Zm-39.7-97.6c4.17-4.36,10.48-5.25,16.21-4.59,6,.69,12.6,3.5,12.79,10.58.12,4.52-2.36,8.41-4,12.46a47,47,0,0,0-17.84-2.15,39.41,39.41,0,0,0-4.92.78c-.4-.29-.81-.55-1.23-.8C97.48,43.48,96.51,36.66,101.35,31.61ZM77.66,69.88a37.86,37.86,0,0,1,30.87-20.34c12.89-1,29.71,4.48,35.9,15.62a38.06,38.06,0,0,1,4.95,18.77c-.09,7.08-2.83,13.9-5.73,20.32a16.35,16.35,0,0,0-1-3.81h0a18.19,18.19,0,0,0-3.07-5.17.47.47,0,0,0,.08-.14c2.36-6.46,3.13-13.24-2-18.53a18,18,0,0,0-15.48-5.28,6.51,6.51,0,0,0-3-2.92c-1.71-.79-5-.74-5.94,1.2l-.14-.1c-1.52-2.27-5.49-.71-7,.91-.13.15-.26.35-.4.53-7.11-.1-15.27,2.22-20,7.79-3.58,4.27-4.76,11-1,15.44-4.27,3.22-4.92,10.13-3.3,15A3.54,3.54,0,0,0,81,109h0a3.72,3.72,0,0,0-1.68-1.63C73.16,95.54,71.37,82.15,77.66,69.88Zm39.43,31.61a9.83,9.83,0,0,0-4.17-.58,10.94,10.94,0,0,0-5.07,1c-3.63-4.19-15.59-2.8-20.56-1.77a1,1,0,0,0-.46-.14,16,16,0,0,0-4.09.38,39,39,0,0,1,3.07-6.26.31.31,0,0,0-.12-.4c-3.46-6.51-1.22-13.09,4.82-17.13,4.42-3,9.54-3.49,14.55-4.69-1.24,2.31-1.9,5.73-.24,7.48a.66.66,0,0,0,.21.23.38.38,0,0,0,.17.08.56.56,0,0,0,.75-.4,11.65,11.65,0,0,1,6-7.39,7.39,7.39,0,0,0-.73,2.93A7.74,7.74,0,0,0,114,81.3a.27.27,0,0,0,.15,0,.41.41,0,0,0,.71.06c1.55-3,2.92-7.51.48-10.33,2.58.39,5,3,6.68,4.6a.5.5,0,0,0,1-.09A7.87,7.87,0,0,0,122.4,72c5,.23,10,1.44,13.74,5.07,5.44,5.29,4.49,11.15,2.6,17.84a.42.42,0,0,0,.35.55c.72,1.55,1.52,3,2.15,4.6a11.91,11.91,0,0,0-2.81.4C134.79,99.48,121.58,97.47,117.09,101.49Zm17,9.86a14.15,14.15,0,0,1-3.34,2.2c-6.72,2.31-15.42-.87-13.26-10.08.08,0,.08-.4.73-.67,5.2-3.29,13.55-2,19.43-1.17C137.8,105.44,137.22,108.61,134.09,111.35ZM86.6,101.77l.23,0a.91.91,0,0,0,.44-.18c6.13-.85,14.73-2.11,19.72,1.71,0,0,0,0,0,.06,3.74,15.35-22.45,14.17-20.3-1.13A.65.65,0,0,0,86.6,101.77Zm27.3-30.71a4.53,4.53,0,0,1,.74,0c1.4,3.38,1,6.24-.35,9.56C112.43,77.79,110.82,73.66,113.9,71.06Zm-.25-1a7.58,7.58,0,0,1,2-1,4.6,4.6,0,0,1,3.45.58,6,6,0,0,1,2.63,4.22A11.74,11.74,0,0,0,117.66,71c-1.1-.47-2.6-1-3.79-.66A2.75,2.75,0,0,0,113.65,70Zm-.7.75a10.19,10.19,0,0,0-7.46,6.14,1.36,1.36,0,0,1,0-.2,8.49,8.49,0,0,1,.89-4.29,5.26,5.26,0,0,1,2.73-2.55,5.18,5.18,0,0,1,3.4.14,4.8,4.8,0,0,1,.58.61ZM86.38,136.31a5.59,5.59,0,0,1,.84-2.92,7.76,7.76,0,0,1,2.71-2.33c.69.81,1.41,1.59,2.15,2.36C89.89,133.61,87.53,134.55,86.38,136.31Zm11.33,5.26a9.94,9.94,0,0,0-3,2.46,7,7,0,0,1,.17-3.41,10.56,10.56,0,0,1,1.94-2.85,36.73,36.73,0,0,0,3.77,2.61A11.28,11.28,0,0,0,97.71,141.57ZM94.76,134a.57.57,0,0,0-.49-.53h0c-2.78-2.74-5.34-5.77-7.84-8.64a.49.49,0,0,0-.79.15c-4-.44-6.07-3.19-8.13-6.44a17.36,17.36,0,0,1-2.15-4.28,5.78,5.78,0,0,1-.16-3.37q1.36-4.2,5.32-1.33a.34.34,0,0,0,.48.12,2.23,2.23,0,0,0,1.49.86.37.37,0,0,0,.36-.46.56.56,0,0,0,.1-.49,16.58,16.58,0,0,1-.5-7.91,11.24,11.24,0,0,0,3,.17c-1.26,7.75,4.77,14.31,12.58,14.26,6,0,12.26-3.37,10.9-12.06a4.48,4.48,0,0,0-.27-.88c1.32,0,2.66-.15,4-.09,1,0,2.13.37,3.2.47,0,.17-.09.33-.12.5-1.34,8.55,4.73,11.9,10.62,12a5.7,5.7,0,0,0,1,0,12.27,12.27,0,0,0,11.85-14.25.58.58,0,0,0-.08-.21,8.1,8.1,0,0,0,2.77.06c.41,1.49.55,3,.93,4.54l0,.07a.54.54,0,0,0,.25.71l0,.12c.1.28.57.34.63,0a3.57,3.57,0,0,0,0-.47l1.23-2.68a.45.45,0,0,0,.6,0c3.7-1.38,4.46,2,4.1,4.2l-.09,1.13a16.55,16.55,0,0,1-1.29,5.2,8.83,8.83,0,0,1-8,5.65.57.57,0,0,0-.57.63h0c-4.1,11.41-13.19,22.07-26.33,22C105.68,142.75,99.84,138.92,94.76,134Zm1.67,23.5c.32-5.54,3-10.16,8.12-12.33q0,.93.06,1.83c0,1.56-.2,3.3.51,4.72,0,.05.06.07.1.1a8.62,8.62,0,0,0,2.59,3.25,18.66,18.66,0,0,0,5,3.23,21.59,21.59,0,0,0-2,3.12c-.87,1.47-1.72,3-2.59,4.42-1.79,3-2.34,5-6.15,5-4.22,0-4.31-2.77-5.11-6.53A27.24,27.24,0,0,1,96.43,157.53ZM68.19,227.81a153.64,153.64,0,0,0-18.25.49c2.59-14.46,4.26-29.15,7.56-43.44A27.59,27.59,0,0,1,61.94,175c5,7.63,5.22,17.82,5.91,26.7A210.29,210.29,0,0,1,68.19,227.81Zm47.43.31-32.3,0c-4.43,0-8.93-.14-13.44-.24a221,221,0,0,0-.9-32c-.73-7.12-.73-16.56-6.34-21.76,7.78-10.12,21.72-15,33-21.14a22.7,22.7,0,0,0,.71,15.43c1.31,2.89,4.06,5.32,7.39,4.18,5.32-1.82,6-9.26,9.66-13.09a2.18,2.18,0,0,1,.94-.58,11.31,11.31,0,0,1,1.56,1.79,2.46,2.46,0,0,0-2.69.41,3.7,3.7,0,0,0-.55.35,3.26,3.26,0,0,0-1.16,2.8,3.57,3.57,0,0,0,4.52,3.27,3.85,3.85,0,0,0,2-1.61c.75,3.71.46,7.79.56,11.54.15,5.73.25,11.46.38,17.2q.39,16.76.8,33.52Zm32.31,0-26.3,0c-.42-14-.82-28.08-1.29-42.12-.23-6.67.37-13.83-.74-20.41a15.37,15.37,0,0,0-1-3.47c2.15,3.29,4.34,6.77,8.13,7.51,4.11.8,6.47-1.84,7.16-5.62s1.18-8.31.38-12.32c6.1,2.7,12.45,4.81,18.67,7.2,4.05,1.56,7.66,3.28,10.41,6.38-2.07,10.13-2.24,20.93-2.3,31.21s-.27,21.38,1.85,31.45C157.89,228,152.86,228.15,147.93,228.15Zm27.41.11c-3.61-.28-7.28-.35-11-.34,0-10.46-1.51-20.93-1.43-31.44.07-9.91,1.26-19.73,1.68-29.61.2.29.41.57.6.88,2.35,3.91,3.77,8.5,5,12.86C174.73,195.88,175.74,212.42,175.34,228.26Z" transform="translate(-17.23 -16)"/><path class="cls-13" d="M103.94,77.61a128.88,128.88,0,0,0-18.2,3.91,15.36,15.36,0,0,1,4.77-4.92c4.42-3,9.55-3.5,14.56-4.69A9.19,9.19,0,0,0,103.94,77.61Z" transform="translate(-17.23 -16)"/><path class="cls-13" d="M111.94,71.91a7.23,7.23,0,0,0-.72,2.92,8,8,0,0,0,.22,2.37c-1.6,0-3.18,0-4.78.14A11.86,11.86,0,0,1,111.94,71.91Z" transform="translate(-17.23 -16)"/><path class="cls-7" d="M108.65,47.86a35.41,35.41,0,0,0,9.57-4.18c2.88-2,5.21-5,5.53-8.51a10.29,10.29,0,0,0-2.47-7.42c4.74,1.31,8.91,4.23,9.08,9.84.11,4.52-2.37,8.42-4,12.47a48.16,48.16,0,0,0-15.83-2.27A11.91,11.91,0,0,0,108.65,47.86Z" transform="translate(-17.23 -16)"/><path class="cls-8" d="M134.09,111.35a13.88,13.88,0,0,1-2.3,1.65,71.55,71.55,0,0,0,.73-7.75l.74.15a.49.49,0,0,0,.47-.81,3.72,3.72,0,0,0-1.17-.77c0-1,0-1.91,0-2.86,1.82.21,3.55.44,5.11.66C137.8,105.43,137.21,108.61,134.09,111.35Z" transform="translate(-17.23 -16)"/><path class="cls-13" d="M141.25,100a11.64,11.64,0,0,0-2.83.4,48.9,48.9,0,0,0-5.91-1c-.07-1.3-.17-2.61-.35-3.92h0c.42,0,.62-.47.46-.79a3,3,0,0,0-.74-.89c-1-5.19-3.06-10.11-7.26-13.14a18.87,18.87,0,0,0-8.34-3.11c.57-2.3.54-4.75-1-6.52,2.57.41,5,3,6.67,4.61a.5.5,0,0,0,1-.09,7.72,7.72,0,0,0-.57-3.59c5,.23,10,1.44,13.75,5.07,5.44,5.29,4.48,11.14,2.6,17.83a.43.43,0,0,0,.34.56C139.8,97,140.61,98.46,141.25,100Z" transform="translate(-17.23 -16)"/><path class="cls-13" d="M149.58,108.16c0,.37-.05.75-.08,1.12a17.61,17.61,0,0,1-1.28,5.21,8.9,8.9,0,0,1-8,5.65.55.55,0,0,0-.57.62c-4.1,11.41-13.2,22.06-26.34,22a21.62,21.62,0,0,1-9-2q2.19.1,4.38,0c5.7-.28,11.65-2,15.38-6.36a24.22,24.22,0,0,0,3.95-7.23,71.3,71.3,0,0,0,3.38-12,12.1,12.1,0,0,0,7.71-13.38.67.67,0,0,0-.09-.21,8.05,8.05,0,0,0,2.76.06c.42,1.5.57,3.06.94,4.54,0,0,0,.05,0,.07a.55.55,0,0,0,.25.72.35.35,0,0,1,0,.12c.1.27.56.33.63,0,0-.15,0-.32,0-.47.4-.89.82-1.78,1.22-2.69a.44.44,0,0,0,.59,0C149.19,102.56,150,105.92,149.58,108.16Z" transform="translate(-17.23 -16)"/><path class="cls-7" d="M149.38,83.92c-.1,7.1-2.84,13.92-5.73,20.32a16.92,16.92,0,0,0-1-3.8,18.06,18.06,0,0,0-3.07-5.17.39.39,0,0,0,.08-.14c2.36-6.45,3.13-13.24-2-18.53a17.92,17.92,0,0,0-15.47-5.28,6.55,6.55,0,0,0-3-2.92c-1.72-.79-5-.74-5.93,1.21l-.16-.1c-1.51-2.27-5.47-.71-7,.9a4.38,4.38,0,0,0-.39.54c-.7,0-1.41,0-2.13,0-6.36.32-13.13,2.56-17.38,7.23-.17.17-.3.33-.45.5-3.58,4.27-4.76,11-1,15.44A10.64,10.64,0,0,0,81,100.59a8.16,8.16,0,0,1-.59-2,68.05,68.05,0,0,1-1.33-17.09,29.44,29.44,0,0,1,1.33-8.07c1.63-4.75,4.75-9,8.16-12.68a39.2,39.2,0,0,1,4.7-3.82c4.55-3.6,9.48-4.79,15.68-6.37a54.2,54.2,0,0,1,8.09-.79c11,1.31,22.52,6.59,27.43,15.39A38.25,38.25,0,0,1,149.38,83.92Z" transform="translate(-17.23 -16)"/><path class="cls-13" d="M123.16,146.37c0,.62-.06,1.24-.11,1.88a10.58,10.58,0,0,1-2.89,1.4,15.51,15.51,0,0,1-5.21.5,20.35,20.35,0,0,1-9-2.57c0-.32,0-.62,0-.92a31.17,31.17,0,0,0-.29-3.85A22.69,22.69,0,0,0,116.31,144a24.8,24.8,0,0,0,6.91-1.94C123.06,143.51,123.18,144.94,123.16,146.37Z" transform="translate(-17.23 -16)"/><path class="cls-11" d="M67.86,201.72a216.26,216.26,0,0,1,.34,26.09c-1.52,0-3-.06-4.51,0A86.79,86.79,0,0,0,67,195.84a31,31,0,0,1-.2-6.08C67.36,193.79,67.56,197.89,67.86,201.72Z" transform="translate(-17.23 -16)"/><path class="cls-11" d="M84.48,228.07H83.32c-4.44,0-8.92-.13-13.44-.23a222.45,222.45,0,0,0-.89-32c-.17-1.55-.29-3.18-.46-4.87,1.67,5.19,2.37,10.68,3.88,15.93A52.66,52.66,0,0,0,84.48,228.07Z" transform="translate(-17.23 -16)"/><path class="cls-11" d="M162.92,227.92c-5,.05-10.06.22-15,.22h-.28a49.86,49.86,0,0,0,7.44-11.53,63.35,63.35,0,0,0,5.6-27.49c0-2.39-.14-4.91.74-7.09-.27,4.84-.32,9.71-.34,14.45C161,206.68,160.81,217.86,162.92,227.92Z" transform="translate(-17.23 -16)"/><path class="cls-11" d="M168.62,228c-1.41,0-2.82,0-4.23,0,0-10.47-1.52-20.94-1.43-31.44,0-5.24.38-10.47.77-15.69a2.74,2.74,0,0,1,.08.43c.78,6.27,1.57,12.52,2.36,18.79.25,2,.5,4,.64,6s.11,4,.18,6A110.27,110.27,0,0,0,168.62,228Z" transform="translate(-17.23 -16)"/><path class="cls-11" d="M118.06,165.86a22.13,22.13,0,0,1,.38,2.83c-.27-.27-.54-.56-.79-.84s-.62-.66-1-.59a1.32,1.32,0,0,0-.64.45c-2.45,2.76-5.51,5.19-9.14,5.85a9.5,9.5,0,0,1-6.07-.94,4.87,4.87,0,0,0,3-.1c5.31-1.82,6-9.26,9.66-13.09a1.94,1.94,0,0,1,.93-.57,11.25,11.25,0,0,1,1.56,1.78,2.48,2.48,0,0,0-2.69.4l-.55.35a3.29,3.29,0,0,0-1.16,2.81,3.56,3.56,0,0,0,4.52,3.28A3.87,3.87,0,0,0,118.06,165.86Z" transform="translate(-17.23 -16)"/><path class="cls-11" d="M135.65,162.32a14.24,14.24,0,0,1-1.68,6.59,8.18,8.18,0,0,1-5.28,4,9.76,9.76,0,0,1-6.84-1.59,16.81,16.81,0,0,1-1.73-1.21,45.41,45.41,0,0,0-.52-4.56,15.6,15.6,0,0,0-1-3.47c2.15,3.29,4.33,6.77,8.13,7.51,4.1.8,6.47-1.85,7.16-5.63a43.94,43.94,0,0,0,.77-8.49A17.7,17.7,0,0,1,135.65,162.32Z" transform="translate(-17.23 -16)"/></g><rect x="6.77" y="184.42" width="193" height="34.46" rx="6.5"/><path class="cls-6" d="M45.24,211.68v11.39h6.43a1.71,1.71,0,0,1,1.18.38,1.22,1.22,0,0,1,.41.93,1.2,1.2,0,0,1-.41.94,1.72,1.72,0,0,1-1.18.36H44a1.66,1.66,0,0,1-1.94-2v-12a2.08,2.08,0,0,1,.43-1.44,1.47,1.47,0,0,1,1.14-.48,1.54,1.54,0,0,1,1.16.47A2.09,2.09,0,0,1,45.24,211.68Z" transform="translate(-17.23 -16)"/><path class="cls-6" d="M65.65,212.47H58.51v3.84h6.58a1.55,1.55,0,0,1,1.08.33,1.1,1.1,0,0,1,.36.86,1.18,1.18,0,0,1-.35.87,1.56,1.56,0,0,1-1.09.34H58.51v4.45H65.9a1.6,1.6,0,0,1,1.12.34,1.19,1.19,0,0,1,.38.93,1.14,1.14,0,0,1-.38.9,1.6,1.6,0,0,1-1.12.35H57.28a1.66,1.66,0,0,1-1.94-2V212a2.74,2.74,0,0,1,.2-1.12,1.27,1.27,0,0,1,.64-.63,2.68,2.68,0,0,1,1.1-.19h8.37a1.66,1.66,0,0,1,1.13.33,1.24,1.24,0,0,1,0,1.77A1.61,1.61,0,0,1,65.65,212.47ZM61.79,206h1.44c.36,0,.54.05.54.16a3.27,3.27,0,0,1-.59.69c-.4.41-.8.79-1.21,1.16a5.86,5.86,0,0,1-.84.68,2.94,2.94,0,0,1-1.31.31c-.3,0-.46-.09-.46-.27a1.64,1.64,0,0,1,.28-.63l.48-.9a2.88,2.88,0,0,1,.73-1A1.68,1.68,0,0,1,61.79,206Z" transform="translate(-17.23 -16)"/><path class="cls-6" d="M70.05,224V211.68a2,2,0,0,1,.44-1.44,1.46,1.46,0,0,1,1.13-.48,1.54,1.54,0,0,1,1.16.47,2.09,2.09,0,0,1,.44,1.45V224a2.09,2.09,0,0,1-.44,1.45,1.51,1.51,0,0,1-1.16.48,1.47,1.47,0,0,1-1.13-.48A2.13,2.13,0,0,1,70.05,224Z" transform="translate(-17.23 -16)"/><path class="cls-6" d="M86.78,223.9l-.75-2H79.67l-.75,2a6.68,6.68,0,0,1-.75,1.58,1.16,1.16,0,0,1-1,.41,1.5,1.5,0,0,1-1.06-.43,1.39,1.39,0,0,1-.46-1,2.28,2.28,0,0,1,.11-.66c.07-.23.19-.54.35-.95l4-10.16.41-1.06a5.57,5.57,0,0,1,.51-1,2.08,2.08,0,0,1,.72-.66,2.24,2.24,0,0,1,2.91.64,5.36,5.36,0,0,1,.46.85c.12.31.28.71.47,1.22l4.09,10.1a5,5,0,0,1,.48,1.67,1.38,1.38,0,0,1-.45,1,1.5,1.5,0,0,1-1.09.45,1.45,1.45,0,0,1-.65-.13,1.39,1.39,0,0,1-.44-.36,3.34,3.34,0,0,1-.39-.71Q86.93,224.28,86.78,223.9Zm-6.28-4.34h4.68l-2.36-6.46Z" transform="translate(-17.23 -16)"/><path class="cls-6" d="M111.29,220.73a4.1,4.1,0,0,1-.37,1.62,5.84,5.84,0,0,1-1.15,1.71,5.93,5.93,0,0,1-2,1.36,7.23,7.23,0,0,1-2.86.52,9.88,9.88,0,0,1-2.26-.23,6.49,6.49,0,0,1-1.84-.73,6.2,6.2,0,0,1-1.52-1.31A8.17,8.17,0,0,1,98.21,222a8.43,8.43,0,0,1-.65-2,10.32,10.32,0,0,1-.22-2.2,9.66,9.66,0,0,1,.55-3.38,7.3,7.3,0,0,1,1.57-2.56,6.92,6.92,0,0,1,2.41-1.62,7.71,7.71,0,0,1,2.93-.55,7.29,7.29,0,0,1,3.39.76,6.19,6.19,0,0,1,2.27,1.87,3.68,3.68,0,0,1,.79,2.11,1.41,1.41,0,0,1-.38,1,1.23,1.23,0,0,1-.93.42,1.32,1.32,0,0,1-.92-.29,3.86,3.86,0,0,1-.67-1,4.94,4.94,0,0,0-1.46-1.74,3.6,3.6,0,0,0-2.07-.57,3.74,3.74,0,0,0-3.11,1.48,6.75,6.75,0,0,0-1.16,4.22,7.88,7.88,0,0,0,.51,3,3.92,3.92,0,0,0,1.46,1.81,4.06,4.06,0,0,0,2.2.59,3.87,3.87,0,0,0,2.31-.67,4.14,4.14,0,0,0,1.42-2,3.4,3.4,0,0,1,.5-1,1.13,1.13,0,0,1,1-.39,1.37,1.37,0,0,1,1,.39A1.32,1.32,0,0,1,111.29,220.73Z" transform="translate(-17.23 -16)"/><path class="cls-6" d="M117.33,211.68v4.49h6.85v-4.49a2.08,2.08,0,0,1,.43-1.44,1.47,1.47,0,0,1,1.14-.48,1.55,1.55,0,0,1,1.16.47,2.09,2.09,0,0,1,.44,1.45V224a2,2,0,0,1-.45,1.45,1.5,1.5,0,0,1-1.15.48,1.47,1.47,0,0,1-1.15-.48,2.18,2.18,0,0,1-.42-1.45v-5.26h-6.85V224a2.09,2.09,0,0,1-.44,1.45,1.52,1.52,0,0,1-1.16.48,1.45,1.45,0,0,1-1.14-.48,2.13,2.13,0,0,1-.43-1.45V211.68a2.08,2.08,0,0,1,.43-1.44,1.44,1.44,0,0,1,1.14-.48,1.52,1.52,0,0,1,1.16.47A2,2,0,0,1,117.33,211.68Z" transform="translate(-17.23 -16)"/><path class="cls-6" d="M140.77,223.9l-.75-2h-6.36l-.75,2a6.68,6.68,0,0,1-.75,1.58,1.16,1.16,0,0,1-1,.41,1.5,1.5,0,0,1-1.06-.43,1.39,1.39,0,0,1-.46-1,2.28,2.28,0,0,1,.11-.66c.07-.23.19-.54.35-.95l4-10.16.41-1.06a5.57,5.57,0,0,1,.51-1,2.08,2.08,0,0,1,.72-.66,2.12,2.12,0,0,1,1.09-.25,2.16,2.16,0,0,1,1.1.25,2.13,2.13,0,0,1,.72.64,5.36,5.36,0,0,1,.46.85c.12.31.28.71.47,1.22l4.09,10.1a5,5,0,0,1,.48,1.67,1.38,1.38,0,0,1-.45,1,1.5,1.5,0,0,1-1.09.45,1.45,1.45,0,0,1-.65-.13,1.39,1.39,0,0,1-.44-.36,3.34,3.34,0,0,1-.39-.71Q140.92,224.28,140.77,223.9Zm-6.28-4.34h4.68l-2.36-6.46Z" transform="translate(-17.23 -16)"/><path class="cls-6" d="M154.72,212.64h-3.46V224a2.06,2.06,0,0,1-.44,1.46,1.47,1.47,0,0,1-1.13.47,1.5,1.5,0,0,1-1.15-.48,2.09,2.09,0,0,1-.44-1.45V212.64h-3.46a1.72,1.72,0,0,1-1.2-.36,1.18,1.18,0,0,1-.4-.94,1.2,1.2,0,0,1,.41-1,1.76,1.76,0,0,1,1.19-.35h10.08a1.76,1.76,0,0,1,1.22.36,1.21,1.21,0,0,1,.4,1,1.18,1.18,0,0,1-.4.94A1.8,1.8,0,0,1,154.72,212.64Z" transform="translate(-17.23 -16)"/><path class="cls-6" d="M164.91,225.68h-4.79a2,2,0,0,1-1.47-.47,2.06,2.06,0,0,1-.45-1.48V212a1.65,1.65,0,0,1,1.92-1.94h5.08a12.25,12.25,0,0,1,1.94.13,4.1,4.1,0,0,1,1.47.54,4,4,0,0,1,1,.84,3.82,3.82,0,0,1,.65,1.12,3.74,3.74,0,0,1,.22,1.3,3.58,3.58,0,0,1-2.35,3.43q3.09,1,3.09,3.82a4.29,4.29,0,0,1-.68,2.37,4,4,0,0,1-1.81,1.55,6.34,6.34,0,0,1-1.64.42A15.42,15.42,0,0,1,164.91,225.68Zm-3.54-13.27v4h2.91a5.83,5.83,0,0,0,1.83-.22,1.77,1.77,0,0,0,1-.86,1.89,1.89,0,0,0,.26-1,1.55,1.55,0,0,0-.84-1.57,6.42,6.42,0,0,0-2.57-.39Zm3.3,6.32h-3.3v4.57h3.41c2.14,0,3.21-.78,3.21-2.32a1.88,1.88,0,0,0-.83-1.72A4.63,4.63,0,0,0,164.67,218.73Z" transform="translate(-17.23 -16)"/><path class="cls-6" d="M180.83,209.76a8.38,8.38,0,0,1,4.19,1,6.38,6.38,0,0,1,2.64,2.8,9.57,9.57,0,0,1,.89,4.28,10.39,10.39,0,0,1-.49,3.3,6.89,6.89,0,0,1-1.47,2.57,6.45,6.45,0,0,1-2.41,1.67,8.84,8.84,0,0,1-3.28.57,8.54,8.54,0,0,1-3.29-.59,6.44,6.44,0,0,1-2.42-1.67,7.09,7.09,0,0,1-1.47-2.59,10.53,10.53,0,0,1-.5-3.28,10.21,10.21,0,0,1,.52-3.31,7.22,7.22,0,0,1,1.5-2.56,6.42,6.42,0,0,1,2.39-1.62A8.69,8.69,0,0,1,180.83,209.76Zm4.51,8.05a7.34,7.34,0,0,0-.55-3,4.14,4.14,0,0,0-1.59-1.91,4.36,4.36,0,0,0-2.37-.64,4.25,4.25,0,0,0-1.75.36,3.72,3.72,0,0,0-1.39,1,4.94,4.94,0,0,0-.92,1.74,8.08,8.08,0,0,0-.33,2.39,8.21,8.21,0,0,0,.33,2.41,5,5,0,0,0,.95,1.79,4,4,0,0,0,1.41,1.06,4.18,4.18,0,0,0,1.75.35,4.1,4.1,0,0,0,3.86-2.48A7.31,7.31,0,0,0,185.34,217.81Z" transform="translate(-17.23 -16)"/><path class="cls-6" d="M200.6,212.64h-3.46V224a2.11,2.11,0,0,1-.44,1.46,1.49,1.49,0,0,1-1.13.47,1.5,1.5,0,0,1-1.15-.48A2.09,2.09,0,0,1,194,224V212.64h-3.46a1.77,1.77,0,0,1-1.21-.36,1.33,1.33,0,0,1,0-1.9,1.74,1.74,0,0,1,1.19-.35H200.6a1.78,1.78,0,0,1,1.22.36,1.21,1.21,0,0,1,.4,1,1.15,1.15,0,0,1-.41.94A1.77,1.77,0,0,1,200.6,212.64Z" transform="translate(-17.23 -16)"/></svg>