<?xml version="1.0" encoding="utf-8"?>
<!-- Generator: Adobe Illustrator 25.4.0, SVG Export Plug-In . SVG Version: 6.00 Build 0)  -->
<svg version="1.1" id="Layer_1" xmlns="http://www.w3.org/2000/svg" xmlns:xlink="http://www.w3.org/1999/xlink" x="0px" y="0px"
	 viewBox="0 0 240 240" style="enable-background:new 0 0 240 240;" xml:space="preserve">
<style type="text/css">
	.st0{fill:#CCEFFE;}
</style>
<path class="st0" d="M120,21.3c-54.5,0-98.7,44.2-98.7,98.7s44.2,98.7,98.7,98.7s98.7-44.2,98.7-98.7S174.5,21.3,120,21.3z
	 M144,168.6l-12.8-22.2c-5.2-8.5-8.5-14-11.6-19.8h-0.3c-2.8,5.8-5.7,11.2-10.9,20l-12.1,22H81.4l30.7-50.8L82.6,68.2h15l13.3,23.5
	c3.7,6.6,6.6,11.6,9.2,17h0.4c2.8-6,5.4-10.6,9.1-17l13.7-23.5h14.9l-30.5,48.8l31.3,51.5H144z"/>
</svg>
